<svg width="180" height="180" viewBox="0 0 180 180" fill="none" xmlns="http://www.w3.org/2000/svg">
  <rect width="180" height="180" rx="40" fill="#3B82F6"/>
  <path d="M50 70C50 64.4772 54.4772 60 60 60H120C125.523 60 130 64.4772 130 70V130C130 135.523 125.523 140 120 140H60C54.4772 140 50 135.523 50 130V70Z" fill="white" fill-opacity="0.2"/>
  <path d="M50 80C50 74.4772 54.4772 70 60 70H120C125.523 70 130 74.4772 130 80V120C130 125.523 125.523 130 120 130H60C54.4772 130 50 125.523 50 120V80Z" fill="white"/>
  <path d="M80 50C80 44.4772 84.4772 40 90 40C95.5228 40 100 44.4772 100 50V70H80V50Z" stroke="white" stroke-width="8"/>
  <rect x="85" y="90" width="10" height="15" rx="2" fill="#3B82F6"/>
</svg>